<svg xmlns="http://www.w3.org/2000/svg" xmlns:xlink="http://www.w3.org/1999/xlink" viewBox="0,0,256,256" width="48px" height="48px"><g fill="#ff2f31" fill-rule="evenodd" stroke="none" stroke-width="1" stroke-linecap="butt" stroke-linejoin="miter" stroke-miterlimit="10" stroke-dasharray="" stroke-dashoffset="0" font-family="none" font-weight="none" font-size="none" text-anchor="none" style="mix-blend-mode: normal"><g transform="scale(10.66667,10.66667)"><path d="M11.75,5.95703c-0.44775,0 -0.89483,0.17167 -1.23633,0.51367l-3.2832,3.2832l1.36719,0.39062l2.25195,-1.35156c0.688,-0.413 1.56972,-0.30528 2.13672,0.26172l0.69922,0.69922l0.94141,-1.64648l-1.64062,-1.63672c-0.3415,-0.342 -0.78858,-0.51367 -1.23633,-0.51367zM18.88672,7.55469c-0.09133,-0.01702 -0.18695,-0.0173 -0.2832,0.00195l-2.5,0.5c-0.213,0.043 -0.39691,0.17623 -0.50391,0.36523l-1.18164,2.06445l5.56836,5.56836c0.14322,0.14322 0.24585,0.31202 0.33008,0.48828h-1.25781l-6.7793,-6.7793c-0.243,-0.244 -0.62102,-0.29028 -0.91602,-0.11328l-1.44922,0.86914l0.31641,0.08984c0.52,0.149 0.94353,0.5302 1.14453,1.0332l1.96094,4.90039h-1.07813l-1.8125,-4.5293c-0.086,-0.215 -0.26723,-0.37841 -0.49023,-0.44141l-3.5,-1c-0.33,-0.094 -0.68052,0.0458 -0.85352,0.3418l-3.2832,5.62891h-0.31836c-0.414,0 -0.75,0.336 -0.75,0.75c0,0.414 0.336,0.75 0.75,0.75h0.75h1.69336h1.73828h5.56836h1.58008h5.41992h2.49609h0.75391c0.414,0 0.75,-0.336 0.75,-0.75c0,-0.414 -0.336,-0.75 -0.75,-0.75h-0.17969l-2.34766,-8.45117c-0.0795,-0.2835 -0.31195,-0.48606 -0.58594,-0.53711zM7.3457,13.97852c0.09664,0.01245 0.1937,0.04345 0.2832,0.0957c0.357,0.208 0.47753,0.66839 0.26953,1.02539l-0.8418,1.44336h-1.73828l1.2832,-2.19922c0.15675,-0.2685 0.45422,-0.40259 0.74414,-0.36523z"></path></g></g></svg>